<?xml version="1.0" standalone="no"?>
<!DOCTYPE svg PUBLIC "-//W3C//DTD SVG 20010904//EN"
 "http://www.w3.org/TR/2001/REC-SVG-20010904/DTD/svg10.dtd">
<svg version="1.0" xmlns="http://www.w3.org/2000/svg"
 width="200.000000pt" height="199.000000pt" viewBox="0 0 200.000000 199.000000"
 preserveAspectRatio="xMidYMid meet">

<g transform="translate(0.000000,199.000000) scale(0.100000,-0.100000)"
fill="#000000" stroke="none">
<path d="M803 1976 c-178 -58 -342 -229 -397 -416 -129 -439 270 -869 719
-775 236 49 431 244 480 480 57 272 -78 548 -329 675 l-89 45 -171 2 c-121 2
-183 -1 -213 -11z m341 -16 c110 -28 190 -74 272 -155 146 -145 206 -354 159
-554 -49 -207 -230 -387 -437 -436 -267 -63 -549 71 -666 315 -47 99 -62 163
-62 263 0 153 62 301 174 412 152 150 357 207 560 155z"/>
<path d="M700 1761 c-114 -37 -167 -121 -126 -199 22 -43 60 -69 223 -151 143
-73 174 -98 188 -154 9 -33 -10 -92 -42 -135 -14 -18 -23 -36 -20 -38 11 -11
81 63 100 105 39 88 -3 153 -162 251 -170 105 -201 135 -201 201 0 83 116 137
200 94 54 -28 65 -83 29 -141 -23 -38 -14 -44 24 -14 60 47 55 125 -12 164
-37 21 -157 32 -201 17z"/>
<path d="M1237 1685 c-20 -8 -83 -40 -138 -71 -172 -98 -216 -105 -279 -47
-28 24 -45 50 -53 80 -14 53 -27 56 -27 5 0 -51 37 -122 80 -150 51 -35 110
-26 270 42 156 66 194 74 242 52 107 -51 54 -240 -67 -240 -41 0 -63 18 -85
69 l-18 40 -7 -27 c-9 -37 22 -99 58 -116 82 -39 214 98 225 234 10 116 -80
173 -201 129z"/>
<path d="M1113 1520 c-62 -37 -76 -99 -62 -275 13 -166 7 -209 -36 -252 -38
-38 -62 -41 -122 -13 -72 32 -106 122 -68 177 16 23 78 48 94 39 5 -4 12 -2
16 4 9 15 -45 32 -80 26 -16 -4 -39 -16 -52 -28 -44 -41 -23 -142 46 -220 35
-40 122 -88 159 -88 37 0 86 27 104 58 28 50 29 91 2 251 -26 156 -26 212 -1
252 19 33 81 59 137 59 52 0 67 13 28 24 -49 13 -133 6 -165 -14z"/>
<path d="M415 598 c-27 -15 -35 -28 -35 -59 0 -32 11 -42 75 -66 41 -15 51
-23 53 -46 5 -42 -46 -56 -112 -31 -10 4 -16 1 -16 -9 0 -19 21 -27 76 -27 50
0 84 25 84 63 0 35 -20 55 -75 75 -52 19 -67 41 -45 67 14 17 63 20 91 5 15
-9 19 -7 19 5 0 30 -76 45 -115 23z"/>
<path d="M676 589 c-28 -22 -36 -69 -13 -87 7 -6 35 -19 62 -29 41 -15 51 -23
53 -46 5 -42 -46 -56 -112 -31 -10 4 -16 1 -16 -9 0 -19 21 -27 76 -27 50 0
84 25 84 63 0 35 -20 56 -75 75 -41 15 -51 23 -53 45 -3 21 2 28 23 33 15 4
42 2 61 -4 28 -8 34 -7 34 4 0 16 -39 34 -74 34 -13 0 -35 -9 -50 -21z"/>
<path d="M1502 600 c-12 -5 -27 -21 -34 -35 -18 -40 2 -70 61 -90 58 -19 77
-43 57 -70 -14 -20 -65 -25 -103 -12 -17 6 -23 5 -23 -6 0 -19 22 -27 74 -27
56 0 86 22 86 64 0 40 -16 55 -79 77 -48 16 -62 39 -41 64 14 17 63 20 91 5
15 -9 19 -7 19 5 0 28 -63 43 -108 25z"/>
<path d="M580 480 c0 -100 3 -120 15 -120 13 0 15 20 15 120 0 100 -2 120 -15
120 -12 0 -15 -20 -15 -120z"/>
<path d="M830 591 c0 -6 19 -11 43 -13 l42 -3 3 -107 c1 -60 7 -108 12 -108 5
0 11 48 12 108 l3 107 43 3 c83 6 41 22 -58 22 -56 0 -100 -4 -100 -9z"/>
<path d="M1060 480 l0 -120 81 0 c60 0 80 3 77 13 -3 7 -28 13 -66 15 l-62 3
0 39 0 40 55 0 c42 0 55 3 55 15 0 12 -13 15 -55 15 l-55 0 0 40 0 40 65 0
c37 0 65 4 65 10 0 6 -33 10 -80 10 l-80 0 0 -120z"/>
<path d="M1250 480 c0 -100 3 -120 15 -120 11 0 15 12 15 50 0 48 1 50 29 50
24 0 35 -9 61 -50 18 -27 38 -50 46 -50 20 0 18 6 -15 54 l-29 42 24 21 c16
15 24 32 24 56 0 51 -24 67 -103 67 l-67 0 0 -120z m121 90 c12 -7 19 -21 19
-41 0 -33 -27 -49 -81 -49 -28 0 -29 1 -29 50 l0 50 36 0 c19 0 44 -5 55 -10z"/>
<path d="M375 250 c3 -5 13 -10 21 -10 10 0 14 -12 14 -45 0 -25 5 -45 10 -45
6 0 10 20 10 45 0 33 4 45 15 45 8 0 15 5 15 10 0 6 -21 10 -46 10 -27 0 -43
-4 -39 -10z"/>
<path d="M476 227 c-24 -58 -28 -77 -17 -77 6 0 11 7 11 15 0 21 40 19 56 -2
7 -10 14 -16 17 -13 7 7 -34 110 -44 110 -5 0 -15 -15 -23 -33z m28 -12 c3 -8
1 -15 -4 -15 -6 0 -10 7 -10 15 0 8 2 15 4 15 2 0 6 -7 10 -15z"/>
<path d="M552 208 c3 -52 4 -53 36 -56 18 -2 32 1 32 7 0 6 -11 11 -25 11 -23
0 -25 4 -25 45 0 25 -5 45 -11 45 -6 0 -9 -21 -7 -52z"/>
<path d="M630 205 l0 -55 35 0 c19 0 35 5 35 10 0 6 -11 10 -25 10 -23 0 -25
4 -25 45 0 25 -4 45 -10 45 -5 0 -10 -25 -10 -55z"/>
<path d="M710 205 l0 -55 35 0 c19 0 35 5 35 10 0 6 -13 10 -30 10 -22 0 -28
4 -24 15 4 8 15 15 25 15 10 0 19 5 19 11 0 5 -10 9 -22 7 -11 -2 -23 3 -25
10 -3 8 6 12 26 12 17 0 31 5 31 10 0 6 -16 10 -35 10 l-35 0 0 -55z"/>
<path d="M797 253 c-15 -14 -6 -40 18 -51 14 -6 25 -17 25 -23 0 -7 -10 -9
-25 -7 -14 3 -25 2 -25 -3 0 -14 21 -21 46 -15 32 8 32 43 -1 58 -32 15 -32
28 1 28 14 0 23 4 19 10 -7 11 -48 14 -58 3z"/>
<path d="M920 205 c0 -30 5 -55 10 -55 6 0 10 9 10 20 0 13 7 20 19 20 11 0
23 5 27 11 3 6 14 -2 25 -20 32 -53 89 -37 89 24 0 39 -16 55 -53 55 -21 0
-30 -6 -34 -20 l-6 -21 -14 21 c-9 12 -25 20 -44 20 -29 0 -29 -1 -29 -55z
m170 7 c0 -29 -16 -44 -41 -40 -30 4 -39 46 -14 65 22 15 55 0 55 -25z m-110
13 c0 -8 -9 -15 -20 -15 -11 0 -20 7 -20 15 0 8 9 15 20 15 11 0 20 -7 20 -15z"/>
<path d="M1120 245 c-15 -17 -6 -33 26 -45 35 -14 30 -33 -6 -28 -19 3 -29 1
-27 -6 5 -17 52 -19 66 -3 16 20 4 46 -25 53 -32 8 -31 24 1 24 14 0 25 5 25
10 0 15 -46 12 -60 -5z"/>
<path d="M1200 205 c0 -30 5 -55 10 -55 6 0 10 20 10 45 0 38 3 45 20 45 17 0
20 -7 20 -45 0 -25 5 -45 10 -45 6 0 10 20 10 45 0 33 4 45 15 45 8 0 15 5 15
10 0 6 -25 10 -55 10 l-55 0 0 -55z"/>
<path d="M1320 205 c0 -70 18 -72 22 -2 l3 52 19 -52 c11 -29 23 -53 27 -53 6
0 16 21 46 98 3 6 1 12 -5 12 -5 0 -17 -17 -25 -37 l-15 -38 -16 38 c-11 25
-23 37 -36 37 -18 0 -20 -7 -20 -55z"/>
<path d="M1452 248 c-17 -17 -15 -64 4 -82 33 -34 84 -8 84 43 0 34 -17 51
-50 51 -14 0 -31 -5 -38 -12z m66 -40 c-2 -28 -7 -33 -28 -33 -21 0 -26 5 -28
33 -3 30 -1 32 28 32 29 0 31 -2 28 -32z"/>
<path d="M1557 253 c-17 -16 -5 -42 24 -52 36 -12 30 -35 -8 -28 -15 3 -22 0
-20 -7 2 -6 17 -11 33 -11 40 0 47 39 10 57 -33 14 -33 28 -1 28 14 0 25 5 25
10 0 11 -53 14 -63 3z"/>
</g>
</svg>
