<?xml version="1.0" standalone="no"?>
<!DOCTYPE svg PUBLIC "-//W3C//DTD SVG 20010904//EN"
 "http://www.w3.org/TR/2001/REC-SVG-20010904/DTD/svg10.dtd">
<svg version="1.0" xmlns="http://www.w3.org/2000/svg"
 width="364.000000pt" height="254.000000pt" viewBox="0 0 364.000000 254.000000"
 preserveAspectRatio="xMidYMid meet">

<g transform="translate(0.000000,254.000000) scale(0.100000,-0.100000)"
fill="#000000" stroke="none">
<path d="M1120 1944 c-95 -41 -150 -148 -150 -293 0 -143 63 -256 158 -285 54
-16 128 -12 178 9 33 14 35 17 29 47 -10 48 -13 50 -46 33 -43 -23 -115 -22
-147 2 -36 26 -60 78 -64 138 l-3 50 170 0 170 0 -1 66 c-2 72 -28 146 -67
188 -51 56 -155 76 -227 45z m144 -83 c24 -21 46 -72 46 -110 l0 -30 -115 -3
c-129 -3 -127 -5 -105 73 24 85 114 122 174 70z"/>
<path d="M947 743 c-4 -3 -7 -18 -7 -33 0 -24 -3 -27 -27 -22 -34 7 -53 -19
-53 -73 0 -52 30 -86 60 -67 14 8 20 8 22 0 2 -6 10 -8 16 -4 8 5 12 40 12
107 0 91 -5 111 -23 92z m-19 -85 c25 -25 11 -88 -19 -88 -16 0 -19 7 -19 43
0 56 12 71 38 45z"/>
<path d="M1000 725 c0 -8 9 -15 20 -15 11 0 20 7 20 15 0 8 -9 15 -20 15 -11
0 -20 -7 -20 -15z"/>
<path d="M657 723 c-4 -3 -7 -14 -7 -24 0 -9 -6 -20 -12 -23 -10 -5 -10 -7 0
-12 7 -3 12 -26 12 -59 0 -45 3 -55 20 -60 21 -7 40 0 40 16 0 5 -9 9 -20 9
-17 0 -20 7 -20 45 0 33 4 45 15 45 19 0 20 16 1 23 -9 4 -12 14 -9 26 5 20
-6 28 -20 14z"/>
<path d="M416 675 c-26 -26 -25 -88 1 -117 20 -23 56 -23 74 -1 13 15 11 16
-11 10 -29 -7 -44 0 -53 26 -5 14 0 17 33 17 47 0 55 11 38 47 -16 33 -57 42
-82 18z m54 -9 c0 -2 3 -11 6 -20 5 -12 0 -16 -20 -16 -24 0 -35 18 -19 33 7
8 33 10 33 3z"/>
<path d="M542 678 c-21 -21 -13 -48 18 -66 37 -21 36 -48 -3 -44 -31 3 -37
-14 -7 -23 55 -18 90 34 47 71 -14 12 -31 24 -38 26 -24 8 2 30 28 23 18 -4
24 -2 21 7 -6 18 -50 22 -66 6z"/>
<path d="M730 626 c0 -73 17 -99 50 -78 12 7 21 8 25 2 15 -24 25 6 25 71 0
52 -3 70 -12 66 -8 -2 -13 -23 -14 -50 -1 -47 -18 -82 -35 -71 -5 3 -9 32 -9
65 0 46 -3 59 -15 59 -12 0 -15 -14 -15 -64z"/>
<path d="M1010 615 c0 -57 3 -76 13 -73 8 3 12 27 12 73 0 46 -4 70 -12 72
-10 4 -13 -15 -13 -72z"/>
<path d="M1086 674 c-23 -23 -21 -89 4 -114 11 -11 27 -20 35 -20 48 0 75 98
37 133 -23 21 -56 22 -76 1z m62 -47 c4 -45 -13 -73 -34 -56 -14 12 -19 80 -7
93 18 17 38 -1 41 -37z"/>
<path d="M1463 380 c0 -25 2 -35 4 -22 2 12 2 32 0 45 -2 12 -4 2 -4 -23z"/>
<path d="M1933 380 c0 -25 2 -35 4 -22 2 12 2 32 0 45 -2 12 -4 2 -4 -23z"/>
<path d="M1237 402 c-2 -4 -1 -18 4 -32 6 -23 7 -23 8 -3 1 12 6 23 13 25 8 3
6 7 -5 11 -9 3 -18 3 -20 -1z"/>
<path d="M2027 403 c-2 -5 -1 -21 3 -38 l6 -30 5 33 c5 30 -4 53 -14 35z"/>
<path d="M419 392 c8 -6 12 -19 8 -31 -3 -12 -1 -21 5 -21 15 0 5 53 -12 57
-12 4 -13 3 -1 -5z"/>
<path d="M625 389 c-11 -16 -1 -19 13 -3 7 8 8 14 3 14 -5 0 -13 -5 -16 -11z"/>
<path d="M772 370 c0 -19 2 -27 5 -17 2 9 2 25 0 35 -3 9 -5 1 -5 -18z"/>
<path d="M832 370 c0 -19 2 -27 5 -17 2 9 2 25 0 35 -3 9 -5 1 -5 -18z"/>
<path d="M1006 391 c-4 -5 3 -7 14 -4 23 6 26 13 6 13 -8 0 -17 -4 -20 -9z"/>
<path d="M1076 391 c-4 -5 3 -7 15 -4 19 5 21 3 17 -21 -4 -18 -2 -24 4 -18
14 14 5 46 -14 50 -9 2 -19 -1 -22 -7z"/>
<path d="M1316 393 c7 -4 14 -19 17 -33 4 -22 5 -21 4 4 -1 17 -9 31 -17 33
-10 3 -11 2 -4 -4z"/>
<path d="M1746 393 c7 -4 14 -19 17 -33 4 -22 5 -21 4 4 -1 17 -9 31 -17 33
-10 3 -11 2 -4 -4z"/>
<path d="M1897 393 c-10 -9 -8 -41 2 -47 5 -4 7 3 4 15 -4 12 0 25 8 30 8 5 9
9 3 9 -6 0 -14 -3 -17 -7z"/>
<path d="M1982 370 c0 -19 2 -27 5 -17 2 9 2 25 0 35 -3 9 -5 1 -5 -18z"/>
<path d="M2100 396 c0 -2 7 -7 16 -10 8 -3 12 -2 9 4 -6 10 -25 14 -25 6z"/>
<path d="M2652 370 c0 -19 2 -27 5 -17 2 9 2 25 0 35 -3 9 -5 1 -5 -18z"/>
<path d="M2735 390 c-3 -6 1 -7 9 -4 18 7 21 14 7 14 -6 0 -13 -4 -16 -10z"/>
<path d="M2800 376 c0 -14 4 -27 8 -30 5 -3 6 8 4 25 -5 35 -12 38 -12 5z"/>
<path d="M2842 370 c0 -19 2 -27 5 -17 2 9 2 25 0 35 -3 9 -5 1 -5 -18z"/>
<path d="M2938 393 c7 -3 16 -2 19 1 4 3 -2 6 -13 5 -11 0 -14 -3 -6 -6z"/>
<path d="M2995 390 c-3 -6 1 -7 9 -4 18 7 21 14 7 14 -6 0 -13 -4 -16 -10z"/>
<path d="M3196 393 c7 -4 14 -19 17 -33 4 -22 5 -21 4 4 -1 17 -9 31 -17 33
-10 3 -11 2 -4 -4z"/>
<path d="M2172 365 c0 -16 2 -22 5 -12 2 9 2 23 0 30 -3 6 -5 -1 -5 -18z"/>
<path d="M3028 367 c-3 -19 -2 -25 4 -19 6 6 8 18 6 28 -3 14 -5 12 -10 -9z"/>
<path d="M540 366 c0 -8 4 -17 9 -20 5 -4 7 3 4 14 -6 23 -13 26 -13 6z"/>
<path d="M907 360 c-3 -11 -1 -20 4 -20 5 0 9 9 9 20 0 11 -2 20 -4 20 -2 0
-6 -9 -9 -20z"/>
<path d="M2080 366 c0 -8 4 -17 9 -20 5 -4 7 3 4 14 -6 23 -13 26 -13 6z"/>
<path d="M2490 366 c0 -8 4 -17 9 -20 5 -4 7 3 4 14 -6 23 -13 26 -13 6z"/>
<path d="M2692 360 c0 -14 2 -19 5 -12 2 6 2 18 0 25 -3 6 -5 1 -5 -13z"/>
</g>
</svg>
