<?xml version="1.0" standalone="no"?>
<!DOCTYPE svg PUBLIC "-//W3C//DTD SVG 20010904//EN"
 "http://www.w3.org/TR/2001/REC-SVG-20010904/DTD/svg10.dtd">
<svg version="1.0" xmlns="http://www.w3.org/2000/svg"
 width="148.000000pt" height="145.000000pt" viewBox="0 0 148.000000 145.000000"
 preserveAspectRatio="xMidYMid meet">

<g transform="translate(0.000000,145.000000) scale(0.100000,-0.100000)"
fill="#000000" stroke="none">
<path d="M200 1055 c-76 -34 -120 -98 -140 -203 -32 -163 21 -317 126 -367 47
-22 146 -23 197 -2 39 17 43 29 27 72 -10 25 -10 25 -40 10 -44 -23 -116 -22
-148 2 -36 26 -60 78 -64 138 l-3 50 170 0 170 0 -2 70 c-5 140 -84 235 -200
242 -38 2 -70 -2 -93 -12z m148 -88 c26 -24 46 -81 40 -117 -3 -25 -4 -25
-115 -26 l-113 0 0 30 c0 16 9 48 20 71 35 73 112 92 168 42z"/>
</g>
</svg>
